<svg width="0" height="0" class="hidden">
  <symbol xmlns="http://www.w3.org/2000/svg" xmlns:xlink="http://www.w3.org/1999/xlink" viewBox="0 0 17 10"
          id="arrow">
    <path d="M0.24 1.66L7.76 9.68C8.15 10.1 8.85 10.1 9.23 9.68L16.69 1.72C17.07 1.3 17.12 0.65 16.69 0.25C16.27 -0.12 15.65 -0.07 15.27 0.35L8.78 7.28C8.62 7.43 8.4 7.43 8.25 7.28L1.73 0.33C1.39 -0.05 0.79 -0.12 0.37 0.2C-0.06 0.53 -0.14 1.27 0.24 1.66L0.24 1.66Z"
          fill="currentColor"/>
  </symbol>
  <symbol xmlns="http://www.w3.org/2000/svg" xmlns:xlink="http://www.w3.org/1999/xlink" viewBox="0 0 31.4458 26.8411"
          id="arrow-line">
    <path d="M27.48 13.16L17.08 2.75C16.42 2.1 16.42 1.05 17.08 0.46C17.73 -0.13 18.78 -0.19 19.37 0.46L30.95 12.05C31.6 12.7 31.6 13.75 30.95 14.34L18.84 26.38C18.52 26.71 18.12 26.84 17.66 26.84C17.21 26.84 16.81 26.71 16.49 26.38C15.83 25.72 15.83 24.68 16.49 24.09L27.48 13.16Z"
          fill="currentColor"/>
    <path d="M1.63 11.78L19.3 11.78C20.22 11.78 20.94 12.5 20.94 13.42C20.94 14.33 20.22 15.05 19.3 15.05L1.63 15.05C0.71 15.05 0 14.33 0 13.42C0 12.5 0.71 11.78 1.63 11.78Z"
          fill="currentColor"/>
  </symbol>
  <symbol xmlns="http://www.w3.org/2000/svg" xmlns:xlink="http://www.w3.org/1999/xlink" viewBox="0 0 36.7 36.7"
          id="benefits">
    <path d="M21.17 18.35C21.17 19.9 19.9 21.17 18.35 21.17C16.79 21.17 15.52 19.9 15.52 18.35C15.52 16.79 16.79 15.52 18.35 15.52C19.9 15.52 21.17 16.79 21.17 18.35Z"
          fill="currentColor"/>
    <path d="M18.35 0C8.18 0 0 8.18 0 18.35C0 28.51 8.18 36.7 18.35 36.7C28.51 36.7 36.7 28.51 36.7 18.35C36.7 8.18 28.51 0 18.35 0ZM8.46 9.88C8.46 9.03 9.03 8.46 9.88 8.46C10.72 8.46 11.29 9.03 11.29 9.88C11.29 10.72 10.72 11.29 9.88 11.29C9.03 11.29 8.46 10.72 8.46 9.88ZM18.49 25.54L10.72 27.66C9.73 27.94 8.75 26.96 9.03 25.97L11.15 18.2C12.13 14.82 14.68 12.13 18.06 11.29L25.83 9.17C26.81 8.89 27.8 9.88 27.52 10.86L25.4 18.63C24.56 21.87 21.87 24.56 18.49 25.54ZM26.81 28.23C25.97 28.23 25.4 27.66 25.4 26.81C25.4 25.97 25.97 25.4 26.81 25.4C27.66 25.4 28.23 25.97 28.23 26.81C28.23 27.66 27.66 28.23 26.81 28.23Z"
          fill="currentColor"/>
  </symbol>
  <symbol xmlns="http://www.w3.org/2000/svg" xmlns:xlink="http://www.w3.org/1999/xlink"
          viewBox="0 0 15.848 15.8481" id="check">
    <path d="M7.92 0C3.56 0 0 3.56 0 7.92C0 12.28 3.56 15.84 7.92 15.84C12.28 15.84 15.84 12.28 15.84 7.92C15.84 3.56 12.28 0 7.92 0ZM11.62 6.27C11.62 6.27 10.56 7.29 9.49 8.3C8.43 9.31 7.36 10.33 7.36 10.33C7.26 10.43 7.14 10.47 7.01 10.47C6.87 10.47 6.75 10.43 6.64 10.33L4.21 7.88C4.01 7.69 4.01 7.36 4.21 7.16C4.4 6.95 4.73 6.95 4.93 7.16L7.01 9.26L10.92 5.53C11.13 5.35 11.44 5.35 11.64 5.55C11.83 5.76 11.83 6.07 11.62 6.27L11.62 6.27Z"
          fill="currentColor"/>
  </symbol>
  <symbol xmlns="http://www.w3.org/2000/svg" xmlns:xlink="http://www.w3.org/1999/xlink"
          viewBox="0 0 15.1911 18" id="dollar">
    <path d="M5.34 18L9.85 18C12.79 18 15.19 15.6 15.19 12.65C15.19 11.41 14.59 9.96 13.59 8.77L10.35 4.93L12.38 1.11C12.43 1 12.42 0.87 12.35 0.77C12.28 0.67 12.15 0.62 12.03 0.64L9.07 1.22L7.81 0.08C7.68 -0.03 7.5 -0.03 7.38 0.08L6.11 1.22L3.15 0.64C3.03 0.62 2.91 0.67 2.83 0.77C2.76 0.87 2.75 1 2.81 1.11L4.84 4.93L1.59 8.77C0.59 9.96 0 11.41 0 12.65C0 15.6 2.39 18 5.34 18L5.34 18ZM3.69 1.4L6.15 1.88C6.25 1.9 6.35 1.87 6.42 1.81L7.59 0.75L8.76 1.81C8.83 1.87 8.94 1.9 9.04 1.88L11.49 1.4L9.85 4.5C9.84 4.5 9.84 4.49 9.83 4.49L5.35 4.49C5.34 4.49 5.34 4.5 5.33 4.5L3.69 1.4ZM2.08 9.19L5.5 5.14L9.68 5.14L13.1 9.19C13.99 10.24 14.54 11.57 14.54 12.65C14.54 15.24 12.44 17.35 9.85 17.35L5.34 17.35C2.75 17.35 0.64 15.24 0.64 12.65C0.64 11.57 1.19 10.24 2.08 9.19L2.08 9.19Z"
          fill="currentColor"/>
    <path d="M7.01 11.69L7.95 12.03C8.48 12.23 8.76 12.82 8.56 13.35C8.42 13.76 8.03 14.04 7.59 14.04L7.59 14.04C7.3 14.04 7.03 13.92 6.83 13.72C6.73 13.62 6.65 13.51 6.6 13.38C6.53 13.22 6.34 13.15 6.18 13.21C6.02 13.28 5.94 13.47 6.01 13.64C6.09 13.83 6.22 14.01 6.37 14.17C6.62 14.42 6.93 14.58 7.27 14.65L7.27 15.42C7.27 15.6 7.41 15.74 7.59 15.74C7.77 15.74 7.91 15.6 7.91 15.42L7.91 14.64C8.48 14.53 8.97 14.13 9.17 13.57C9.32 13.15 9.3 12.7 9.11 12.29C8.92 11.89 8.59 11.58 8.17 11.43L7.23 11.09C6.7 10.89 6.42 10.3 6.62 9.77C6.76 9.36 7.16 9.09 7.59 9.09L7.59 9.09C7.88 9.09 8.15 9.2 8.35 9.4C8.45 9.5 8.53 9.61 8.58 9.74C8.65 9.9 8.84 9.97 9.01 9.91C9.17 9.84 9.24 9.65 9.17 9.48C9.08 9.28 8.96 9.1 8.81 8.95C8.56 8.7 8.25 8.54 7.91 8.47L7.91 7.7C7.91 7.53 7.77 7.38 7.59 7.38C7.41 7.38 7.27 7.53 7.27 7.7L7.27 8.48C6.7 8.59 6.22 8.99 6.01 9.55C5.86 9.97 5.88 10.42 6.07 10.83C6.26 11.23 6.59 11.54 7.01 11.69L7.01 11.69Z"
          fill="currentColor"/>
  </symbol>
  <symbol xmlns="http://www.w3.org/2000/svg" xmlns:xlink="http://www.w3.org/1999/xlink" viewBox="0 0 11.7543 11.7651"
          id="facebook">
    <path d="M5.87 0C2.63 0 0 2.64 0 5.91C0 8.87 2.17 11.32 4.99 11.75L4.99 7.47L3.54 7.47L3.54 5.92L4.99 5.92L4.99 4.89C4.99 3.17 5.82 2.42 7.24 2.42C7.91 2.42 8.27 2.47 8.44 2.5L8.44 3.85L7.48 3.85C6.88 3.85 6.67 4.43 6.67 5.07L6.67 5.92L8.43 5.92L8.19 7.47L6.67 7.47L6.67 11.76C9.54 11.37 11.75 8.9 11.75 5.91C11.75 2.64 9.12 0 5.87 0Z"
          fill="currentColor"/>
  </symbol>
  <symbol xmlns="http://www.w3.org/2000/svg" xmlns:xlink="http://www.w3.org/1999/xlink" viewBox="0 0 14 14" id="find">
    <path d="M5.94 0C4.04 0 2.25 0.91 1.13 2.45C0.01 3.99 -0.3 5.97 0.29 7.78C0.88 9.6 2.29 11.02 4.11 11.6C5.92 12.19 7.9 11.88 9.44 10.76L12.4 13.72C12.64 13.96 12.98 14.05 13.3 13.96C13.63 13.88 13.88 13.63 13.96 13.3C14.05 12.98 13.96 12.64 13.72 12.4L10.76 9.44C11.62 8.25 12.02 6.78 11.86 5.32C11.71 3.85 11.02 2.5 9.92 1.52C8.83 0.53 7.41 -0.01 5.94 1.43e-5L5.94 0ZM5.94 10.03C4.86 10.03 3.82 9.6 3.05 8.83C2.29 8.07 1.86 7.03 1.86 5.94C1.86 4.86 2.29 3.82 3.05 3.06C3.82 2.29 4.86 1.86 5.94 1.86C7.02 1.86 8.06 2.29 8.83 3.06C9.59 3.82 10.02 4.86 10.02 5.94C10.02 7.03 9.59 8.07 8.83 8.83C8.06 9.6 7.02 10.03 5.94 10.03Z"
          fill="currentColor"/>
  </symbol>
  <symbol xmlns="http://www.w3.org/2000/svg" xmlns:xlink="http://www.w3.org/1999/xlink"
          viewBox="0 0 23.4792 21.5754" id="heart">
    <path d="M1.69 1.83C-0.57 4.29 -0.57 8.23 1.69 10.69L11.73 21.57C15.08 17.95 18.43 14.33 21.77 10.7C24.04 8.25 24.04 4.3 21.77 1.85C19.51 -0.61 15.86 -0.61 13.59 1.85L11.74 3.85L9.88 1.83C7.61 -0.62 3.96 -0.62 1.7 1.83L1.69 1.83Z"
          fill="currentColor"/>
  </symbol>
  <symbol xmlns="http://www.w3.org/2000/svg" xmlns:xlink="http://www.w3.org/1999/xlink"
          viewBox="0 0 10.1871 10.1963" id="instagram">
    <path id="Vector"
          d="M2.97 0C1.33 0 0 1.33 0 2.97L0 7.22C0 8.86 1.33 10.19 2.97 10.19L7.21 10.19C8.85 10.19 10.18 8.86 10.18 7.22L10.18 2.97C10.18 1.33 8.85 0 7.21 0L2.97 0ZM8.14 1.63C8.37 1.63 8.55 1.81 8.55 2.03C8.55 2.26 8.37 2.44 8.14 2.44C7.92 2.44 7.74 2.26 7.74 2.03C7.74 1.81 7.92 1.63 8.14 1.63ZM5.09 2.44C6.55 2.44 7.74 3.63 7.74 5.09C7.74 6.56 6.55 7.74 5.09 7.74C3.63 7.74 2.44 6.56 2.44 5.09C2.44 3.63 3.63 2.44 5.09 2.44ZM5.09 3.26C4.08 3.26 3.25 4.08 3.25 5.09C3.25 6.11 4.08 6.93 5.09 6.93C6.1 6.93 6.92 6.11 6.92 5.09C6.92 4.08 6.1 3.26 5.09 3.26Z"
          fill="currentColor"/>
  </symbol>
  <symbol xmlns="http://www.w3.org/2000/svg" xmlns:xlink="http://www.w3.org/1999/xlink" viewBox="0 0 12.2458 17.6802"
          id="pin">
    <path d="M6.12 0C2.73 0 0 2.85 0 6.34C0 7.61 0.36 8.57 0.97 9.54L5.93 17.57L5.93 17.57C5.97 17.64 6.04 17.68 6.12 17.68C6.2 17.68 6.27 17.64 6.31 17.57L11.27 9.54C11.87 8.57 12.24 7.61 12.24 6.34C12.24 2.85 9.5 0 6.12 0L6.12 0ZM6.12 0.45C9.25 0.45 11.79 3.08 11.79 6.34C11.79 7.52 11.46 8.37 10.89 9.31L6.12 17.02L1.35 9.31C0.77 8.37 0.45 7.52 0.45 6.34C0.45 3.08 2.99 0.45 6.12 0.45L6.12 0.45ZM6.12 3.17C4.49 3.17 3.17 4.49 3.17 6.12C3.17 7.74 4.49 9.07 6.12 9.07C7.74 9.07 9.07 7.74 9.07 6.12C9.07 4.49 7.74 3.17 6.12 3.17ZM6.12 3.62C7.5 3.62 8.61 4.74 8.61 6.12C8.61 7.5 7.5 8.61 6.12 8.61C4.74 8.61 3.62 7.5 3.62 6.12C3.62 4.74 4.74 3.62 6.12 3.62Z"
          fill="currentColor"/>
  </symbol>
  <symbol xmlns="http://www.w3.org/2000/svg" xmlns:xlink="http://www.w3.org/1999/xlink" viewBox="0 0 9.32006 11.753"
          id="play">
    <path d="M0 0L0.24 11.75L9.32 5.68L0 0Z" fill="currentColor"/>
  </symbol>
  <symbol xmlns="http://www.w3.org/2000/svg" xmlns:xlink="http://www.w3.org/1999/xlink"
          viewBox="0 0 13 13" id="star">
    <path d="M11.78 4.46L12.6 4.58C12.77 4.61 12.92 4.73 12.97 4.91L12.97 4.91L12.97 4.91L12.97 4.91C12.99 4.98 13 5.05 12.99 5.13C12.98 5.23 12.93 5.33 12.85 5.41L10.01 8.32L10.68 12.43C10.71 12.61 10.64 12.79 10.5 12.9C10.35 13.01 10.17 13.03 10.01 12.94L6.5 11L2.98 12.94C2.82 13.03 2.64 13.01 2.49 12.9C2.35 12.79 2.28 12.61 2.31 12.43L2.98 8.32L0.14 5.41C0.01 5.28 -0.04 5.09 0.02 4.91C0.07 4.73 0.22 4.61 0.39 4.58L4.32 3.98L6.08 0.24C6.24 -0.09 6.76 -0.09 6.91 0.24L8.67 3.98L11.78 4.46ZM11.45 5.42L7.99 4.89L6.5 1.71L5 4.89L1.54 5.42L4.05 7.98L3.47 11.53L6.5 9.86L9.52 11.53L8.94 7.98L11.45 5.42Z"
          fill="currentColor"/>
  </symbol>
  <symbol xmlns="http://www.w3.org/2000/svg" xmlns:xlink="http://www.w3.org/1999/xlink" viewBox="0 0 13 13"
          id="star-filled">
    <path d="M12.97 4.91C12.92 4.73 12.77 4.61 12.6 4.58L8.67 3.98L6.91 0.24C6.76 -0.09 6.24 -0.09 6.08 0.24L4.32 3.98L0.39 4.58C0.22 4.61 0.07 4.73 0.02 4.91C-0.04 5.09 0.01 5.28 0.14 5.41L2.98 8.32L2.31 12.43C2.28 12.61 2.35 12.79 2.49 12.9C2.64 13.01 2.82 13.03 2.98 12.94L6.5 11L10.01 12.94C10.17 13.03 10.35 13.01 10.5 12.9C10.64 12.79 10.71 12.61 10.68 12.43L10.01 8.32L12.85 5.41C12.98 5.28 13.03 5.09 12.97 4.91L12.97 4.91Z"
          fill="currentColor"/>
  </symbol>
  <symbol xmlns="http://www.w3.org/2000/svg" xmlns:xlink="http://www.w3.org/1999/xlink" viewBox="0 0 14.1052 11.7651"
          id="twitter">
    <path d="M14.1 1.39C13.58 1.62 13.02 1.78 12.44 1.86C13.03 1.49 13.49 0.9 13.71 0.21C13.15 0.55 12.53 0.8 11.87 0.93C11.34 0.35 10.59 0 9.76 0C8.16 0 6.87 1.33 6.87 2.96C6.87 3.2 6.89 3.42 6.94 3.64C4.54 3.52 2.41 2.33 0.98 0.54C0.73 0.98 0.59 1.49 0.59 2.03C0.59 3.06 1.1 3.97 1.87 4.51C1.4 4.49 0.95 4.35 0.56 4.13C0.56 4.14 0.56 4.16 0.56 4.17C0.56 5.61 1.56 6.81 2.88 7.08C2.64 7.15 2.39 7.19 2.12 7.19C1.93 7.19 1.75 7.17 1.58 7.13C1.94 8.31 3.01 9.17 4.28 9.2C3.29 9.99 2.04 10.47 0.68 10.47C0.45 10.47 0.22 10.46 0 10.43C1.28 11.27 2.8 11.76 4.43 11.76C9.75 11.76 12.67 7.23 12.67 3.31C12.67 3.18 12.66 3.05 12.66 2.92C13.22 2.51 13.71 1.98 14.1 1.39Z"
          fill="currentColor"/>
  </symbol>
  <symbol xmlns="http://www.w3.org/2000/svg" xmlns:xlink="http://www.w3.org/1999/xlink" viewBox="0 0 14.8887 10.1963"
          id="youtube">
    <path d="M14.47 1.75C14.33 1.05 13.67 0.54 12.91 0.38C11.77 0.15 9.67 0 7.39 0C5.11 0 2.97 0.15 1.83 0.38C1.07 0.54 0.41 1.01 0.27 1.75C0.13 2.54 0 3.66 0 5.09C0 6.53 0.13 7.64 0.31 8.44C0.44 9.14 1.1 9.65 1.86 9.81C3.07 10.03 5.14 10.19 7.42 10.19C9.7 10.19 11.77 10.03 12.98 9.81C13.74 9.65 14.4 9.17 14.54 8.44C14.68 7.64 14.85 6.49 14.88 5.09C14.81 3.66 14.64 2.54 14.47 1.75ZM5.52 7.32L5.52 2.86L9.74 5.09L5.52 7.32Z"
          fill="currentColor"/>
  </symbol>
</svg>