<svg width="104.000000" height="45.322636" viewBox="0 0 104 45.3226" fill="none" xmlns="http://www.w3.org/2000/svg" xmlns:xlink="http://www.w3.org/1999/xlink">
	<desc>
			Created with Pixso.
	</desc>
	<defs/>
	<path id="Polygon 1" d="M9.89 15.7L9.73 7.53L1.95 13.77L9.89 15.7Z" fill="#544CAC" fill-opacity="1.000000" fill-rule="evenodd"/>
	<path id="Polygon 2" d="M20.33 11.35L11.37 4.74L11.64 18.32L20.33 11.35Z" fill="#FF5C00" fill-opacity="1.000000" fill-rule="evenodd"/>
	<path id="Polygon 4" d="M35.26 29.29L35.48 39.8L45.48 31.76L35.26 29.29Z" fill="#544CAC" fill-opacity="1.000000" fill-rule="evenodd"/>
	<path id="Polygon 3" d="M8.94 23.05L34.44 41.75L33.54 3.17L8.94 23.05Z" fill="#544CAC" fill-opacity="1.000000" fill-rule="evenodd"/>
	<path id="ZIRO" d="M57.71 25.1L53.79 35L64.56 35L64.56 32.3L57.53 32.3L60.41 25.1L62 25.1L63.05 22.41L61.48 22.41L64.56 14.7L53.79 14.7L53.79 17.39L60.78 17.39L58.78 22.41L57.24 22.41L56.17 25.1L57.71 25.1ZM69.6 14.7L69.6 35L72.3 35L72.3 14.7L69.6 14.7ZM76.12 14.7L76.12 35L78.82 35L78.82 25.1L81.52 25.1L84.22 35L86.88 35L84.22 25.1L84.83 25.1Q85.2 25.1 85.53 24.98Q85.93 24.83 86.27 24.5Q86.56 24.2 86.72 23.85Q86.88 23.47 86.88 23.02L86.88 16.79Q86.88 16.33 86.72 15.95Q86.56 15.6 86.27 15.31Q85.93 14.97 85.53 14.82Q85.2 14.7 84.83 14.7L76.12 14.7ZM91.54 34.9Q91.83 35 92.16 35L98.74 35Q99.36 35 99.82 34.73Q100.06 34.59 100.26 34.39Q100.5 34.14 100.65 33.85Q100.86 33.41 100.86 32.88L100.86 16.81Q100.86 16.28 100.65 15.84Q100.5 15.55 100.26 15.31Q100.06 15.1 99.82 14.96Q99.36 14.7 98.74 14.7L92.16 14.7Q91.83 14.7 91.54 14.8Q91.1 14.94 90.74 15.31Q90.48 15.56 90.33 15.88Q90.13 16.3 90.13 16.81L90.13 32.88Q90.13 33.39 90.33 33.81Q90.48 34.13 90.74 34.39Q91.1 34.75 91.54 34.9ZM97.09 32.33L93.81 32.33Q93.67 32.33 93.53 32.28Q93.3 32.21 93.1 32.01Q92.98 31.87 92.9 31.71Q92.8 31.49 92.8 31.23L92.8 18.46Q92.8 18.12 92.95 17.86Q93.02 17.76 93.1 17.67Q93.29 17.48 93.51 17.41Q93.65 17.37 93.81 17.37L97.09 17.37Q97.45 17.37 97.71 17.53Q97.81 17.59 97.89 17.67Q97.98 17.76 98.04 17.86Q98.19 18.12 98.19 18.46L98.19 31.23Q98.19 31.49 98.09 31.71Q98.02 31.87 97.89 32.01Q97.79 32.11 97.68 32.18Q97.43 32.33 97.09 32.33ZM83.17 22.41L78.82 22.41L78.82 17.39L83.17 17.39Q83.31 17.39 83.44 17.43Q83.68 17.5 83.89 17.7Q84.07 17.87 84.15 18.07Q84.22 18.24 84.22 18.43L84.22 21.37Q84.22 21.56 84.15 21.73Q84.07 21.93 83.89 22.1Q83.68 22.3 83.44 22.37Q83.31 22.41 83.17 22.41Z" fill="#272626" fill-opacity="1.000000" fill-rule="evenodd"/>
</svg>
